<svg width="23" height="14" viewBox="0 0 23 14" fill="none" xmlns="http://www.w3.org/2000/svg">
<path d="M15.8794 13.9535V11.6424L19.831 7.69083C19.8911 7.63076 19.9387 7.55944 19.9713 7.48095C20.0038 7.40245 20.0205 7.31832 20.0205 7.23335C20.0205 7.14838 20.0038 7.06424 19.9713 6.98575C19.9387 6.90725 19.8911 6.83593 19.831 6.77587L15.8794 2.82434V0.513184L22.5996 7.23335L15.8794 13.9535Z" fill="black"/>
<path d="M11.739 9.96119V8.664V5.82166V4.52602V0.513824L14.586 3.36082L15.2331 4.00787L15.8801 4.65491L18.459 7.23377L15.8801 9.81263L15.2331 10.4597L14.586 11.1067L11.739 13.9537V9.96119Z" fill="black"/>
<path d="M10.4434 5.87491V8.73608C7.85578 8.94163 2.91768 9.68374 0.00268936 12.3643C1.05448 9.73756 3.72218 6.36095 10.4434 5.87491Z" fill="black"/>
</svg>
